<?xml version="1.0" encoding="utf-8"?>
<!-- Generator: Adobe Illustrator 25.2.1, SVG Export Plug-In . SVG Version: 6.00 Build 0)  -->
<svg version="1.1" id="Layer_1" xmlns="http://www.w3.org/2000/svg" xmlns:xlink="http://www.w3.org/1999/xlink" x="0px" y="0px"
	 viewBox="0 0 2000 2000" style="enable-background:new 0 0 2000 2000;" xml:space="preserve">
<style type="text/css">
	.st0{fill:#161616;}
</style>
<g>
	<path class="st0" d="M1493.28,944.31c-14.24-206.52-208.78-424.8-462.69-441.26c-208.78-13.54-433.52,131.12-501.9,335
		c-39.07,116.47-19.87,234.64-27.12,333.99c0,95.5-1.12,172.97,0.58,250.39c0.63,28.86-15.21,73.99,33.18,75.36
		c48.38,1.38,36.43-43.34,36.67-72.8c1.16-145.78-1.63-291.63,1.76-437.35C577.79,814.61,686,664.37,843.6,604.45
		c277.13-105.38,566.64,80.94,579.54,377.19c6.54,150.07,1.82,300.61,3,450.94c0.21,26.66-2.21,61.69,35.15,63.01
		c37.05,1.3,39.09-31.14,38.46-59.7C1496.15,1272.06,1504.59,1108.24,1493.28,944.31z"/>
	<path class="st0" d="M1324.31,964.59c-218.3,0.25-436.59,0.24-654.89,0.01c-27.14-0.03-53.75,4.16-54.18,36.72
		c-0.46,35.07,28.94,34.67,54.56,34.69c109.15,0.08,218.3,0.03,327.44,0.03c109.15,0,218.29,0.03,327.44-0.02
		c25.76-0.01,55-0.08,54.19-35.07C1378.14,968.53,1351.42,964.56,1324.31,964.59z"/>
</g>
</svg>
