<?xml version="1.0" encoding="utf-8"?>
<!-- Generator: Adobe Illustrator 25.2.1, SVG Export Plug-In . SVG Version: 6.00 Build 0)  -->
<svg version="1.1" id="Layer_1" xmlns="http://www.w3.org/2000/svg" xmlns:xlink="http://www.w3.org/1999/xlink" x="0px" y="0px"
	 viewBox="0 0 2000 2000" style="enable-background:new 0 0 2000 2000;" xml:space="preserve">
<style type="text/css">
	.st0{fill:#161616;}
</style>
<g>
	<path class="st0" d="M1109,959.66c-98.74-9.02-198.75-4.39-298.18-5.59c-32.66-0.4-68.1,2.74-69.24,44.12
		c-1.2,43.61,35.79,44.12,67.81,44.6c93.74,1.39,187.96-3.16,281.13,4.74c141.55,12.01,235.97,123.92,227.14,258.22
		c-8.38,127.27-114.91,221.86-253.01,223.33c-88.12,0.94-176.27,0.26-264.4,0.22c-32.99-0.02-57.32,14.71-57.88,48.29
		c-0.55,32.96,28.12,39.19,54.56,39.75c53.98,1.13,108,0.34,162.01,0.34c0-0.65,0.01-1.29,0.01-1.93c45.44,0,91.05,2.56,136.29-0.46
		c175.69-11.71,306.84-148.64,310.34-321.86C1409.05,1121.09,1283.81,975.62,1109,959.66z"/>
	<path class="st0" d="M640.41,382.06c-54.56-0.54-45.37,47.91-45.5,83.18c-0.68,178.52-0.32,357.04-0.31,535.55
		c0,178.52-0.43,357.04,0.4,535.55c0.15,32.15-9.35,76.24,40.21,79.3c55.3,3.41,50.47-41.8,50.49-78.45
		c0.21-357.04,0.28-714.07-0.09-1071.11C685.57,430.4,694.05,382.58,640.41,382.06z"/>
</g>
</svg>
