<?xml version="1.0" encoding="utf-8"?>
<!-- Generator: Adobe Illustrator 25.2.1, SVG Export Plug-In . SVG Version: 6.00 Build 0)  -->
<svg version="1.1" id="Layer_1" xmlns="http://www.w3.org/2000/svg" xmlns:xlink="http://www.w3.org/1999/xlink" x="0px" y="0px"
	 viewBox="0 0 2000 2000" style="enable-background:new 0 0 2000 2000;" xml:space="preserve">
<style type="text/css">
	.st0{fill:#161616;}
</style>
<g>
	<path class="st0" d="M1472.08,1443.73c-18.97-0.04-37.95-0.31-56.92-0.41c-154.17-0.83-308.69,4.65-462.41-3.98
		c-220.8-12.39-403.69-219.85-398.36-440.14c5.66-233.49,185.02-428.43,409.6-436.76c163.45-6.06,327.25-2.48,490.89-3.43
		c26.76-0.15,59.48-2.83,61.51-33.98c2.35-36.11-28.83-42.72-60.38-42.04c-173.04,3.75-346.29-7.37-519.2,6.86
		c-229.62,18.89-424.45,215.41-451.79,455.5c-26.83,235.64,119.85,466.79,335.94,541.32c123.11,42.46,248.54,24.69,352.32,30.94
		c113.38,0,205.9,0.16,298.42-0.12c22.55-0.07,45.53-4.63,46.42-32.27C1519.04,1456.53,1500,1443.79,1472.08,1443.73z"/>
	<path class="st0" d="M1480.92,604.63c-31.11-2.29-39.8,20.83-40.05,46.45c-0.72,72.81-0.7,145.63-0.02,218.44
		c0.24,25.29,7.62,48.9,39.14,47.28c29.92-1.54,37.23-24.29,37.45-49.91c0.3-35.23,0.08-70.46,0.08-105.7
		c0-35.23,0.1-70.46-0.03-105.7C1517.42,629.87,1510.49,606.8,1480.92,604.63z"/>
</g>
</svg>
