<?xml version="1.0" encoding="utf-8"?>
<!-- Generator: Adobe Illustrator 25.2.1, SVG Export Plug-In . SVG Version: 6.00 Build 0)  -->
<svg version="1.1" id="Layer_1" xmlns="http://www.w3.org/2000/svg" xmlns:xlink="http://www.w3.org/1999/xlink" x="0px" y="0px"
	 viewBox="0 0 2000 2000" style="enable-background:new 0 0 2000 2000;" xml:space="preserve">
<style type="text/css">
	.st0{fill:#161616;}
</style>
<g>
	<path class="st0" d="M1151.28,476.18C1033,443.95,912.53,457.6,810.93,453.4c-105.8,0-193.54-0.24-281.27,0.12
		c-31.98,0.13-74.33-6.1-75.76,38.98c-1.48,46.45,40.59,41,72.94,41.13c170.43,0.74,341.02-2.88,511.26,3.3
		c162.18,5.88,286.48,88.15,366.99,225.42c184.35,314.32-32.15,696.26-397.48,704.44c-160.35,3.59-320.84,1.07-481.26,1.12
		c-31.01,0.01-67.17-0.74-68.55,39.46c-1.49,43.46,36.97,39,66.53,39.05c157.92,0.29,315.85,0.44,473.77-0.13
		c104.49-0.38,201.9-25.8,292.19-80.21c181.16-109.16,284.51-329,254.05-545.26C1514.79,711.22,1354.73,531.62,1151.28,476.18z"/>
	<path class="st0" d="M488.29,1419.06c43.14,1.65,39.52-35.93,39.53-65.98c0.06-235.18,0.11-470.36-0.08-705.53
		c-0.03-29.74,4.32-67.3-40.37-64.64c-42.43,2.53-36.73,39.65-36.75,69.34c-0.11,115.09-0.04,230.17-0.04,345.26
		c0,117.59,0.12,235.18-0.08,352.77C450.43,1380.73,447.14,1417.49,488.29,1419.06z"/>
</g>
</svg>
