<?xml version="1.0" encoding="utf-8"?>
<!-- Generator: Adobe Illustrator 25.2.1, SVG Export Plug-In . SVG Version: 6.00 Build 0)  -->
<svg version="1.1" id="Layer_1" xmlns="http://www.w3.org/2000/svg" xmlns:xlink="http://www.w3.org/1999/xlink" x="0px" y="0px"
	 viewBox="0 0 2000 2000" style="enable-background:new 0 0 2000 2000;" xml:space="preserve">
<style type="text/css">
	.st0{fill:#161616;}
</style>
<g>
	<path class="st0" d="M1457.53,1469.8c-156.01-1.51-312.09,1.76-468.05-1.35c-181.13-3.6-317.59-89.65-403.7-245.91
		c-168.9-306.48,45.24-678.22,396.18-689.21c163.41-5.12,327.09-1.79,490.65-1.93c33.16-0.03,73.47,4.08,73.15-41.71
		c-0.28-40.8-39.67-39.09-69.34-38.61c-173.51,2.81-346.94-2.17-520.59,4.47c-248.27,9.49-481.45,231.1-504.02,491.78
		c-23.29,268.98,145.4,512.32,407.56,581.9c113.85,30.22,230.04,13.42,326.65,18.82c104.03,0,189.61,1.17,275.14-0.57
		c34.41-0.71,89,15.27,87.22-40.45C1546.59,1452.19,1491.92,1470.13,1457.53,1469.8z"/>
	<path class="st0" d="M1482.48,959.09c-276.68-0.11-553.37-0.14-830.04,0.04c-30.01,0.02-67.56-3.85-69.27,38.15
		c-2,49.08,39.61,42.91,71.36,43.05c135.83,0.59,271.65,0.26,407.47,0.25c140.86,0,281.71,0.19,422.57-0.16
		c30.24-0.08,67.02,2.07,65.75-41.43C1549.07,956.85,1512.89,959.11,1482.48,959.09z"/>
</g>
</svg>
