<?xml version="1.0" encoding="utf-8"?>
<!-- Generator: Adobe Illustrator 25.2.1, SVG Export Plug-In . SVG Version: 6.00 Build 0)  -->
<svg version="1.1" id="Layer_1" xmlns="http://www.w3.org/2000/svg" xmlns:xlink="http://www.w3.org/1999/xlink" x="0px" y="0px"
	 viewBox="0 0 2000 2000" style="enable-background:new 0 0 2000 2000;" xml:space="preserve">
<style type="text/css">
	.st0{fill:#161616;}
</style>
<g>
	<path class="st0" d="M1275.17,953.77c-101.46-0.78-203.23,2.5-304.29-4.41c-129.28-8.85-228.2-123.85-226.65-253.31
		c1.56-130.4,102.41-240.72,231.6-249.86c50.49-3.57,101.44-0.58,152.18-0.58c0-0.54,0-1.08,0-1.61c50.75,0,101.51,0.09,152.26-0.03
		c35.45-0.08,68.74-6.67,68.18-51.02c-0.53-41.93-36.3-43.65-65.42-43.57c-107.34,0.28-215.18-2.76-321.89,6.41
		c-178.48,15.35-311.71,167.09-309.99,342.54c1.76,179.53,132.82,328.99,310.17,343.54c103.84,8.52,208.74,4.28,313.17,5.52
		c32.71,0.39,72.6,5.51,75.38-40.67C1352.91,956.27,1313.1,954.06,1275.17,953.77z"/>
	<path class="st0" d="M698.69,956.28c-35.45-0.63-48.84,25.79-48.72,60.88c0.66,190.12,0.42,380.24,0.16,570.36
		c-0.05,32.49,5.81,62.43,45.14,63.34c47.13,1.09,47.48-34.89,47.46-68.93c-0.05-92.09-0.02-184.18-0.02-276.27
		c0-95.06-0.49-190.12,0.26-285.18C743.23,987.52,736.1,956.94,698.69,956.28z"/>
</g>
</svg>
