<?xml version="1.0" encoding="utf-8"?>
<!-- Generator: Adobe Illustrator 25.2.1, SVG Export Plug-In . SVG Version: 6.00 Build 0)  -->
<svg version="1.1" id="Layer_1" xmlns="http://www.w3.org/2000/svg" xmlns:xlink="http://www.w3.org/1999/xlink" x="0px" y="0px"
	 viewBox="0 0 2000 2000" style="enable-background:new 0 0 2000 2000;" xml:space="preserve">
<style type="text/css">
	.st0{fill:#161616;}
</style>
<g>
	<path class="st0" d="M1439.04,1443.64c-147.26-0.94-294.54-0.05-441.8-0.53c-162.57-0.53-289.7-73.03-374.7-206.74
		c-185.2-291.32,17.83-667.43,363.96-677.75c154.26-4.6,308.74-1.62,463.13-1.61c29.35,0,65.05,1.56,67.08-34.81
		c2.47-44.29-38.54-41.4-68.24-40.99c-163.78,2.28-327.49-2.82-491.39,4.18c-226.27,9.67-455.51,210.74-476.65,472.95
		c-19.21,238.18,138.77,470.97,373.73,538.78c111.81,32.27,226.33,15.51,321.84,20.69c98.56,0,179.35,1.3,260.07-0.64
		c32.18-0.78,83.22,15.81,82.26-38.53C1517.48,1431.24,1470.04,1443.84,1439.04,1443.64z"/>
	<path class="st0" d="M1486.73,966.79c-29.46-1.17-39.38,19.17-39.25,47.03c0.53,113.39,0.3,226.78,0.15,340.16
		c-0.03,24.34,9.26,43.13,34.94,44.57c31.73,1.78,38.36-21,38.34-47.25c-0.05-56.69-0.02-113.39,0-170.08
		c0.02-54.33-0.43-108.67,0.22-162.99C1521.43,992.43,1517.75,968.02,1486.73,966.79z"/>
</g>
</svg>
