<?xml version="1.0" encoding="utf-8"?>
<!-- Generator: Adobe Illustrator 25.2.1, SVG Export Plug-In . SVG Version: 6.00 Build 0)  -->
<svg version="1.1" id="Layer_1" xmlns="http://www.w3.org/2000/svg" xmlns:xlink="http://www.w3.org/1999/xlink" x="0px" y="0px"
	 viewBox="0 0 2000 2000" style="enable-background:new 0 0 2000 2000;" xml:space="preserve">
<style type="text/css">
	.st0{fill:#161616;}
</style>
<g>
	<path class="st0" d="M1045.78,744.43c-0.03-37.37,4.83-85.47-49.51-82.63c-52.39,2.74-44.48,50.96-44.54,87.89
		c-0.24,133.13-0.1,266.27-0.09,399.4c0,133.13-0.3,266.27,0.19,399.4c0.14,36.97-6.41,83.84,49.64,82.49
		c49.86-1.2,44.13-45.11,44.19-79.07C1046.09,1282.75,1046,1013.59,1045.78,744.43z"/>
	<path class="st0" d="M1074.32,369.09c-44.86-2.33-46.13,34.83-47.71,67.6c-0.42,8.69,1.19,17.73-0.67,26.05
		c-4.03,18.08,2.67,46.01-26.38,46.12c-25.75,0.1-30.27-22.3-30.36-44.07c-0.07-17.41,0.18-34.84-0.43-52.23
		c-0.98-28.09-17.71-43.4-44.11-43.46c-26.5-0.06-43.58,15.85-44.55,43.39c-2.15,61-8.26,123.85,50.12,166.54
		c38.81,28.38,80.97,29.76,122.98,8.65c58.1-29.2,66.31-83.47,67.72-156.5C1121.78,411.03,1122.89,371.61,1074.32,369.09z"/>
</g>
</svg>
