<?xml version="1.0" encoding="utf-8"?>
<!-- Generator: Adobe Illustrator 25.2.1, SVG Export Plug-In . SVG Version: 6.00 Build 0)  -->
<svg version="1.1" id="Layer_1" xmlns="http://www.w3.org/2000/svg" xmlns:xlink="http://www.w3.org/1999/xlink" x="0px" y="0px"
	 viewBox="0 0 2000 2000" style="enable-background:new 0 0 2000 2000;" xml:space="preserve">
<style type="text/css">
	.st0{fill:#161616;}
</style>
<g>
	<path class="st0" d="M1323.17,1020.78c0.33-31.21-2.89-67.16-44.36-64.62c-37.93,2.33-42.42,35.53-42.45,68.37
		c-0.09,90.98,3.04,182.33-3.79,272.87c-10.17,134.71-111.53,222.63-242.59,218.87c-127.29-3.65-223.86-102.95-227.53-234.77
		c-1.08-38.6-0.16-77.24-0.26-115.86c-0.09-49.66-0.02-99.31-0.12-148.97c-0.06-30.77-10.56-58.06-44.76-57.51
		c-34.6,0.56-42.66,28.38-42.31,59.21c1.04,91.01-1.33,182.13,2.56,273c7.45,174.2,135.68,303.44,303.21,309.76
		c178.79,6.74,316.82-105.11,335.96-282.98C1327.3,1219.93,1322.14,1119.98,1323.17,1020.78z"/>
	<path class="st0" d="M1279.99,398.59c-36.36-0.32-44.61,27.2-44.91,57c-0.65,63.43-0.2,126.87-0.2,190.31
		c0,66.2-0.51,132.4,0.23,198.59c0.33,29.42,7.44,57.63,44.34,57.34c35.76-0.28,45.14-26.97,45.25-57.03
		c0.43-129.64,0.36-259.28,0.05-388.9C1324.67,425.79,1315.83,398.9,1279.99,398.59z"/>
</g>
</svg>
