<?xml version="1.0" encoding="utf-8"?>
<!-- Generator: Adobe Illustrator 25.2.1, SVG Export Plug-In . SVG Version: 6.00 Build 0)  -->
<svg version="1.1" id="Layer_1" xmlns="http://www.w3.org/2000/svg" xmlns:xlink="http://www.w3.org/1999/xlink" x="0px" y="0px"
	 viewBox="0 0 2000 2000" style="enable-background:new 0 0 2000 2000;" xml:space="preserve">
<style type="text/css">
	.st0{fill:#161616;}
</style>
<g>
	<path class="st0" d="M1341.85,1509.88c-82.52-0.94-165.08,0.81-247.59-0.64c-153.47-2.71-262.64-103.12-265.06-241.96
		c-2.47-141.79,108.06-245.18,266.57-247.83c85.35-1.43,170.74-0.74,256.12-0.81c29.08-0.02,52.33-10.13,52.71-42.02
		c0.38-31.06-21.26-44.18-50.74-44.34c-51.22-0.28-102.44-0.08-153.67-0.08c0-0.16,0-0.32,0-0.48c-42.69,0-85.43-1.41-128.05,0.24
		c-187.84,7.28-330.68,149.83-332.32,330.64c-1.62,178.11,142.16,326.06,328.78,334.02c90.91,3.88,182.11,0.46,273.17,1.29
		c34.85,0.32,64.79-5.06,63.01-48.62C1403.1,1508.16,1369.81,1510.2,1341.85,1509.88z"/>
	<path class="st0" d="M643,382.63c-56.47-2.48-47.28,45.51-47.33,80.68c-0.52,359.9-0.45,719.79-0.09,1079.69
		c0.03,33.24-5.53,75.81,45.14,74.43c48.64-1.33,44.31-42.55,44.34-76.53c0.17-181.36,0.08-362.73,0.08-544.09
		c0-178.53,0.11-357.06-0.09-535.59C685,427.55,690.7,384.73,643,382.63z"/>
</g>
</svg>
