<?xml version="1.0" encoding="utf-8"?>
<!-- Generator: Adobe Illustrator 25.2.1, SVG Export Plug-In . SVG Version: 6.00 Build 0)  -->
<svg version="1.1" id="Layer_1" xmlns="http://www.w3.org/2000/svg" xmlns:xlink="http://www.w3.org/1999/xlink" x="0px" y="0px"
	 viewBox="0 0 2000 2000" style="enable-background:new 0 0 2000 2000;" xml:space="preserve">
<style type="text/css">
	.st0{fill:#161616;}
</style>
<g>
	<path class="st0" d="M1213.55,1098.1c-40.6-1.64-47.17,30.41-47.71,62.84c-1.05,63.15,1.14,126.49-3.03,189.42
		c-6.34,95.65-66.5,156.18-154.29,161.07c-87.58,4.89-150.32-50.16-169.42-144.56c-12.72-62.9-2.96-126-7.03-188.84
		c-2.16-33.4,10.88-81.89-43.94-79.42c-50.77,2.29-41.37,48.72-42.37,83.34c-0.71,24.71-0.14,49.45-0.14,74.18c0.4,0,0.8,0,1.2,0
		c0,32.96-2.07,66.07,0.36,98.86c10.43,140.93,115.84,242.14,251.98,243.51c135.04,1.35,242.04-99.13,252.44-241.7
		c4.79-65.62,2.48-131.79,2.19-197.71C1253.67,1130.81,1249.36,1099.54,1213.55,1098.1z"/>
	<path class="st0" d="M789.21,1040.58c35.16,1.12,43.33-26.25,43.24-56.73c-0.26-87.46-0.09-174.92-0.1-262.37
		c-0.01-87.46,0-174.92-0.02-262.37c-0.01-29.49-5.4-57.61-42.09-57.62c-35.33-0.01-44.16,25.91-44.15,56.5
		c0.08,174.92,0.31,349.83-0.21,524.75C745.78,1014.16,756.1,1039.52,789.21,1040.58z"/>
</g>
</svg>
