<?xml version="1.0" encoding="utf-8"?>
<!-- Generator: Adobe Illustrator 25.2.1, SVG Export Plug-In . SVG Version: 6.00 Build 0)  -->
<svg version="1.1" id="Layer_1" xmlns="http://www.w3.org/2000/svg" xmlns:xlink="http://www.w3.org/1999/xlink" x="0px" y="0px"
	 viewBox="0 0 2000 2000" style="enable-background:new 0 0 2000 2000;" xml:space="preserve">
<style type="text/css">
	.st0{fill:#161616;}
</style>
<g>
	<path class="st0" d="M1497.37,889.02c-50.53-241.34-286.35-417.47-520.04-397.55c-276.85,23.59-469.24,210.5-485.49,475.45
		c-4.7,76.64-0.72,153.81-0.72,230.73c-1.09,0-2.19,0-3.28,0.01c0,81.65-0.93,163.31,0.54,244.93c0.46,25.72-9.06,63.51,32,65.87
		c45.43,2.62,40.7-35.48,40.77-65.37c0.34-142.3,0.94-284.61-0.16-426.9c-0.59-75.89,12.01-148.5,47.33-215.88
		c93.27-177.91,299.47-273.48,488.85-227.64c196.81,47.64,333.23,214.75,336.96,418.56c2.77,151.58,0.63,303.25,0.55,454.88
		c-0.02,29.7,4.08,61.22,40.67,60.31c33.37-0.83,34.42-31.97,34.42-58.54c-0.02-67.65,0.29-135.3-0.06-202.95
		C1509.09,1126.1,1521.77,1005.54,1497.37,889.02z"/>
	<path class="st0" d="M1036.71,1059.53c0-128.36,0.02-256.71-0.02-385.07c-0.01-28.63,0.79-61.81-38.25-61.9
		c-40.19-0.09-37.31,34.41-37.34,62.28c-0.23,256.71-0.28,513.43,0.07,770.14c0.04,27.17-5.56,62.89,34.32,64.98
		c45.38,2.38,40.99-35.34,41.07-65.36C1036.9,1316.24,1036.71,1187.89,1036.71,1059.53z"/>
</g>
</svg>
