<?xml version="1.0" encoding="utf-8"?>
<!-- Generator: Adobe Illustrator 25.2.1, SVG Export Plug-In . SVG Version: 6.00 Build 0)  -->
<svg version="1.1" id="Layer_1" xmlns="http://www.w3.org/2000/svg" xmlns:xlink="http://www.w3.org/1999/xlink" x="0px" y="0px"
	 viewBox="0 0 2000 2000" style="enable-background:new 0 0 2000 2000;" xml:space="preserve">
<style type="text/css">
	.st0{fill:#161616;}
</style>
<g>
	<path class="st0" d="M1536.71,1210.89c-0.81,0-1.63,0-2.44,0c0-80.7,3.47-161.58-0.63-242.07
		c-14.28-280.81-243.61-497.93-528.6-503.39c-269.69-5.16-507.17,208.99-533.31,483.65c-16.25,170.75-4.01,342.17-6.51,513.26
		c-0.44,29.89-8.06,71.58,39.04,72.31c48.32,0.75,39.42-41.1,39.6-71.13c0.81-139.44-0.54-278.89,0.8-418.33
		c0.53-55.89-1.83-112.32,15.03-167.08c71.25-231.36,274.39-359.73,520.45-328.41c210.45,26.79,376.96,224.08,380.04,453.98
		c2.1,156.54,0.62,313.13,0.26,469.7c-0.07,28.72,1.79,58.08,37.95,59.04c37.43,1,38.57-28.88,38.45-57.35
		C1536.47,1387.03,1536.71,1298.96,1536.71,1210.89z"/>
	<path class="st0" d="M503.8,669.05c23.74,0.39,36.17-14.33,39.33-34.84c2.91-18.88,0.62-38.55,0.62-57.88c-0.17,0-0.35,0-0.52,0
		c0-24.13,2.17-48.51-0.64-72.3c-2.53-21.39-17.44-34.53-40.38-33.11c-19.03,1.18-33.69,12.55-34.41,31.21
		c-1.77,45.68-1.98,91.57,0.51,137.2C469.26,657.12,483.87,668.72,503.8,669.05z"/>
</g>
</svg>
