<?xml version="1.0" encoding="utf-8"?>
<!-- Generator: Adobe Illustrator 25.2.1, SVG Export Plug-In . SVG Version: 6.00 Build 0)  -->
<svg version="1.1" id="Layer_1" xmlns="http://www.w3.org/2000/svg" xmlns:xlink="http://www.w3.org/1999/xlink" x="0px" y="0px"
	 viewBox="0 0 2000 2000" style="enable-background:new 0 0 2000 2000;" xml:space="preserve">
<style type="text/css">
	.st0{fill:#161616;}
</style>
<g>
	<path class="st0" d="M1088.95,455.74c-87.8-6.46-176.32-3.03-264.5-4.43c-28.2-0.45-53.83,7.61-52.99,38.92
		c0.77,28.7,24.58,41.59,52.97,41.8c42.86,0.32,85.72,0.08,128.58,0.19c35.3,0.1,70.61-0.62,105.89,0.23
		c127.85,3.08,218.49,88.62,221.28,208.2c2.86,122.58-86.86,215.01-217.39,220.05c-78.04,3.01-156.28,0.82-234.43,1.41
		c-30.03,0.22-59.63,8.31-58.38,43.69c1.15,32.65,32.48,34.52,57.48,34.51c88.17-0.05,176.75,3.25,264.43-3.86
		c157.17-12.74,266.56-135.94,266.41-291.5C1358.13,590.02,1246.73,467.35,1088.95,455.74z"/>
	<path class="st0" d="M719.88,526.55c-0.03-31.41,8.52-73.42-41.46-71.4c-43.75,1.77-35.56,40.74-35.62,69.82
		c-0.33,158.13-0.16,316.27-0.16,474.4s-0.45,316.27,0.39,474.4c0.16,30.24-12.49,74.07,37.42,74.93
		c50.13,0.85,39.24-42.71,39.29-73.34C720.25,1159.09,720.16,842.82,719.88,526.55z"/>
</g>
</svg>
