<?xml version="1.0" encoding="utf-8"?>
<!-- Generator: Adobe Illustrator 25.2.1, SVG Export Plug-In . SVG Version: 6.00 Build 0)  -->
<svg version="1.1" id="Layer_1" xmlns="http://www.w3.org/2000/svg" xmlns:xlink="http://www.w3.org/1999/xlink" x="0px" y="0px"
	 viewBox="0 0 2000 2000" style="enable-background:new 0 0 2000 2000;" xml:space="preserve">
<style type="text/css">
	.st0{fill:#161616;}
</style>
<g>
	<path class="st0" d="M1178.05,956.38c-84.03-0.83-168.15,1.96-252.1-0.9c-147.18-5.02-252.69-114.51-249.19-254.85
		c3.41-136.86,109.1-236.29,255.82-238.73c86.91-1.45,173.87-0.17,260.81-0.42c34.43-0.1,66.95-7.5,67.05-49.68
		c0.1-39.35-32.03-43.45-62.19-43.07c-104.2,1.31-208.79-1.44-312.5,6.7C741.23,386.78,624.03,494.19,594.46,631.5
		c-32.34,150.14,31.95,293.88,161.21,370.26c93.55,55.28,195.64,42.68,286.55,45.25c53.19,0,96.67,0.57,140.12-0.19
		c33.55-0.59,78.63,8.57,79.43-42C1262.66,949.18,1214.74,956.74,1178.05,956.38z"/>
	<path class="st0" d="M1413.5,999.47c0-182.03,0.14-364.05-0.13-546.08c-0.05-34.2,5.96-77.85-42.62-80.42
		c-57.52-3.03-49,45.61-49.05,81.63c-0.53,364.05-0.6,728.1,0.11,1092.15c0.07,35.13-11.55,85.36,45.68,84.52
		c55.38-0.82,45.61-49.67,45.73-85.73C1413.84,1363.52,1413.5,1181.5,1413.5,999.47z"/>
</g>
</svg>
