<?xml version="1.0" encoding="utf-8"?>
<!-- Generator: Adobe Illustrator 25.2.1, SVG Export Plug-In . SVG Version: 6.00 Build 0)  -->
<svg version="1.1" id="Layer_1" xmlns="http://www.w3.org/2000/svg" xmlns:xlink="http://www.w3.org/1999/xlink" x="0px" y="0px"
	 viewBox="0 0 2000 2000" style="enable-background:new 0 0 2000 2000;" xml:space="preserve">
<style type="text/css">
	.st0{fill:#161616;}
</style>
<g>
	<path class="st0" d="M1029.53,381.41c-48.38-4.36-97.1-4.87-145.66-7.14c-0.03,0.85-0.06,1.7-0.09,2.55
		c-54.39,0-108.87-1.82-163.13,0.83c-24.25,1.18-53.23,3.81-53.69,41.06c-0.49,39.36,26.29,48.29,56.45,48.81
		c83,1.43,166.05,0.99,249.08,0.43c49.07-0.33,97.58,1.57,141.77,26.04c98.76,54.7,146.29,163.11,121.95,276.88
		c-21.41,100.11-109.51,176.7-220.49,182.73c-94.21,5.12-188.87,2.03-283.32,2.83c-32.88,0.28-67.13,3.16-67.51,46.42
		c-0.34,39.2,31.45,42.91,61.27,42.77c103.01-0.48,206.57,4.62,308.89-4.27c170-14.77,301.09-163.29,300.07-328.65
		C1334.05,538.11,1204.69,397.2,1029.53,381.41z"/>
	<path class="st0" d="M1287.59,1525.56c-175.23-131.32-350.96-261.99-526.8-392.5c-15.65-11.61-33.25-20.61-44.71-27.62
		c-26.15-1.14-41.27,6.65-47.51,24.59c-13.51,38.88,15.88,57.36,40.54,75.79c175.45,131.11,351.41,261.52,527.14,392.25
		c27.97,20.81,57.95,46.69,87.34,6.77C1355.15,1561.98,1313.29,1544.82,1287.59,1525.56z"/>
</g>
</svg>
