<?xml version="1.0" encoding="utf-8"?>
<!-- Generator: Adobe Illustrator 25.2.1, SVG Export Plug-In . SVG Version: 6.00 Build 0)  -->
<svg version="1.1" id="Layer_1" xmlns="http://www.w3.org/2000/svg" xmlns:xlink="http://www.w3.org/1999/xlink" x="0px" y="0px"
	 viewBox="0 0 2000 2000" style="enable-background:new 0 0 2000 2000;" xml:space="preserve">
<style type="text/css">
	.st0{fill:#161616;}
</style>
<g>
	<path class="st0" d="M1111.57,1042.65c44.99,0,89.98-0.54,134.95,0.18c31.95,0.51,63.1-5.65,62.25-43.21
		c-0.87-38.39-34.1-39.9-64.78-39.94c-84.65-0.11-169.48,2.19-253.91-2.46c-131.15-7.22-219.46-105.7-215.7-234.31
		c3.42-117.11,97.49-209.04,221.25-212.8c84.6-2.57,169.32-1.22,253.99-1.38c29.67-0.06,55.11-11.14,58.54-41.45
		c4.12-36.31-27.63-42.35-53.73-42.28c-103.07,0.29-206.89-10.84-309.04,6.28c-115.56,19.37-196.02,86.51-234.66,198.03
		c-38.22,110.31-20.56,210.63,54.21,303.16C857.28,1046.78,983.03,1046.88,1111.57,1042.65z"/>
	<path class="st0" d="M1249.14,1495.41c-81.69,0.45-163.38,0.15-245.07,0.16c-84.32,0.01-168.65,0.16-252.97-0.07
		c-32.3-0.09-60.04,7.03-57.87,46.52c2.04,37.2,32.52,35.98,58.88,36.04c166.01,0.36,332.02,0.16,498.03,0.21
		c27.75,0.01,57.33-3.09,58.63-37.21C1310.21,1503.64,1281.63,1495.23,1249.14,1495.41z"/>
</g>
</svg>
