<?xml version="1.0" encoding="utf-8"?>
<!-- Generator: Adobe Illustrator 25.2.1, SVG Export Plug-In . SVG Version: 6.00 Build 0)  -->
<svg version="1.1" id="Layer_1" xmlns="http://www.w3.org/2000/svg" xmlns:xlink="http://www.w3.org/1999/xlink" x="0px" y="0px"
	 viewBox="0 0 2000 2000" style="enable-background:new 0 0 2000 2000;" xml:space="preserve">
<style type="text/css">
	.st0{fill:#161616;}
</style>
<g>
	<path class="st0" d="M1274.89,673.82c-34.21-131.48-151.61-213.03-293.52-207.35c-126.33,5.06-249.78,102.54-264.74,225.45
		c-12.1,99.43-4.82,201.19-6.43,301.91c-0.42,26.46,12.97,45.05,37.76,45.29c24.53,0.24,38.83-17.4,38.47-44.26
		c-0.56-41.79-0.15-83.58-0.12-125.38c0.03-29.5-0.18-59,0.06-88.5c1.21-144.74,85.58-240.05,211.77-239.39
		c126.98,0.66,210.13,93.78,212.72,239.71c1.22,68.81,0.42,137.66,0.48,206.5c0.02,23.72,4.84,47.1,32.51,49.32
		c31.06,2.48,43.97-22.17,43.47-47.57C1285.23,884.22,1301.93,777.73,1274.89,673.82z"/>
	<path class="st0" d="M999.24,587.38c-43.02,0.68-36.61,38.05-36.67,66.83c-0.29,135.2-0.13,270.4-0.13,405.6
		c0,137.66-0.07,275.32,0.06,412.98c0.03,26.86-4.35,59.35,34.86,60.96c44.26,1.81,40.85-32.92,40.85-62.69
		c0.05-272.86,0.03-545.72,0.04-818.58C1038.25,622.72,1041.51,586.71,999.24,587.38z"/>
</g>
</svg>
