<?xml version="1.0" encoding="utf-8"?>
<!-- Generator: Adobe Illustrator 25.2.1, SVG Export Plug-In . SVG Version: 6.00 Build 0)  -->
<svg version="1.1" id="Layer_1" xmlns="http://www.w3.org/2000/svg" xmlns:xlink="http://www.w3.org/1999/xlink" x="0px" y="0px"
	 viewBox="0 0 2000 2000" style="enable-background:new 0 0 2000 2000;" xml:space="preserve">
<style type="text/css">
	.st0{fill:#161616;}
</style>
<g>
	<path class="st0" d="M1443.33,612.38c0.09-4.04,0.07-8.1-0.18-12.14c-1.33-21.65-7.17-43.24-32.55-42.97
		c-23.56,0.25-34.09,18.05-33.08,41.84c0.59,14.14,0.19,28.33,0.06,42.49c-1.17,135.53,1.75,271.25-4.72,406.53
		c-6.5,135.77-121.89,272.2-252.27,311.23c-260,77.83-497.62-95.6-501.03-366.8c-1.63-129.49-0.64-259.01-0.42-388.52
		c0.04-22.95-5.91-41.23-32-42.2c-28.58-1.06-30.65,20.36-30.68,41.59c-0.11,74.87-0.04,149.74-0.07,224.62
		c-0.03,56.66,0.34,113.32-0.1,169.98c-0.91,116.37,37.53,217.75,118.16,301.7c130.13,135.48,287.24,174,465.36,118.53
		c164.11-51.11,282.11-202.84,296.96-369.19C1449.76,903.56,1439.93,757.91,1443.33,612.38z"/>
	<path class="st0" d="M1443.51,1358.22c0-14.87-0.14-24.93,0.03-34.98c0.39-23.81-3.63-47.34-32.63-48
		c-29.04-0.65-34.48,22.17-34.19,46.38c0.12,10.05-1.72,20.47,0.31,30.09c6.6,31.26-21.22,86.31,35.28,85.06
		C1461.52,1435.7,1436.18,1383.24,1443.51,1358.22z"/>
</g>
</svg>
