<?xml version="1.0" encoding="utf-8"?>
<!-- Generator: Adobe Illustrator 25.2.1, SVG Export Plug-In . SVG Version: 6.00 Build 0)  -->
<svg version="1.1" id="Layer_1" xmlns="http://www.w3.org/2000/svg" xmlns:xlink="http://www.w3.org/1999/xlink" x="0px" y="0px"
	 viewBox="0 0 2000 2000" style="enable-background:new 0 0 2000 2000;" xml:space="preserve">
<style type="text/css">
	.st0{fill:#161616;}
</style>
<g>
	<path class="st0" d="M1422.33,543.77c-47.31,1.66-27.38,52.59-28.57,82.5c-5.98,150.24,13.36,301.64-10.56,450.8
		c-30.54,190.45-208.74,323.97-408.2,314.11c-188.46-9.32-351.64-162.72-361.85-350.48c-7.83-143.83-3.64-288.3-5.67-432.47
		c-0.36-25.59,6.64-61.96-33.16-61.92c-38.86,0.04-33.57,35.05-33.63,61.51c-0.29,125.45-1.48,250.91,0.28,376.33
		c1.53,108.64,27.21,210.42,97.76,296.96c117.62,144.3,272.07,202.86,451.47,166.85c176.14-35.36,295.37-145.55,348.7-321.48
		c31.15-102.75,12.64-207.75,18.92-295.14c0-79.17,2.07-141.99-0.88-204.58C1455.49,595.69,1477.14,541.84,1422.33,543.77z"/>
	<path class="st0" d="M1000.69,1347.59c35.43-0.73,30.92-32.56,30.95-57.36c0.1-115.01,0.04-230.03,0.04-345.04
		c0-117.1-0.06-234.21,0.04-351.31c0.02-23.56,0.92-51.43-30.02-52.18c-34.37-0.83-35.17,27.77-35.14,54.3
		c0.26,232.12,0.27,464.24-0.02,696.35C966.5,1318.74,966.6,1348.3,1000.69,1347.59z"/>
</g>
</svg>
