<?xml version="1.0" encoding="utf-8"?>
<!-- Generator: Adobe Illustrator 25.2.1, SVG Export Plug-In . SVG Version: 6.00 Build 0)  -->
<svg version="1.1" id="Layer_1" xmlns="http://www.w3.org/2000/svg" xmlns:xlink="http://www.w3.org/1999/xlink" x="0px" y="0px"
	 viewBox="0 0 2000 2000" style="enable-background:new 0 0 2000 2000;" xml:space="preserve">
<style type="text/css">
	.st0{fill:#161616;}
</style>
<g>
	<path class="st0" d="M1559.1,481.26c-49.1,44.79-100.77,87.1-146.66,134.94c-33.45,34.88-50.2,33.27-83.69-3.81
		c-171.22-189.56-451.82-202.47-640.31-29.15c-99.69,91.66-192.88,190.4-288.35,286.59c-19.67,19.82-51.93,39.77-19.74,72.83
		c32.72,33.61,53.6,0.3,72.87-18.56c93.33-91.35,185.06-184.32,277.8-276.28c73.55-72.92,162.8-107.91,295.55-107.1
		c61.06-2.86,138.29,29.33,207.52,85.67c84.4,68.69,84.85,76.23,7.53,147.14c-246.72,226.27-493,453.02-739.43,679.6
		c-21.95,20.18-50.65,42.63-22.98,73.23c29.27,32.38,52.83,1.13,73.85-17.93c85.73-77.7,171.07-155.84,256.19-234.22
		c162.96-150.05,325.48-300.58,488.81-450.22c13.5-12.37,25.72-36.11,47.61-27.73c20.9,8.01,16.19,33.84,19.49,52.01
		c20.51,112.75-2.49,217.39-79.4,302.21c-94.21,103.89-195.72,201.18-294.05,301.36c-20.28,20.66-52.61,42.99-24.15,73.07
		c31.87,33.69,56.97,0.94,79.39-21.35c80.39-79.91,159.19-161.46,241-239.88c144.71-138.72,196.41-301.68,134.49-495.27
		c-11.33-35.42-2.1-58.5,25.71-82.2c56.15-47.86,109.73-98.77,163.31-149.55c18.36-17.4,33.07-38.72,10.26-63.51
		C1597.61,446.97,1578.18,463.85,1559.1,481.26z"/>
</g>
</svg>
