<?xml version="1.0" encoding="utf-8"?>
<!-- Generator: Adobe Illustrator 25.2.1, SVG Export Plug-In . SVG Version: 6.00 Build 0)  -->
<svg version="1.1" id="Layer_1" xmlns="http://www.w3.org/2000/svg" xmlns:xlink="http://www.w3.org/1999/xlink" x="0px" y="0px"
	 viewBox="0 0 2000 2000" style="enable-background:new 0 0 2000 2000;" xml:space="preserve">
<style type="text/css">
	.st0{fill:#161616;}
</style>
<g>
	<path class="st0" d="M1284.85,388.43c-42.35-0.39-45.86,34.09-46.03,66.35c-0.44,81.54,1.08,163.11-0.47,244.62
		c-2.85,149.88-98.57,254.91-232.3,257.09c-142.47,2.32-245.55-104.46-248.56-259.61c-1.63-84.32-0.6-168.7-0.27-253.06
		c0.13-33.31-12.87-54.8-48.72-53.98c-34.74,0.8-38.58,25.96-38.49,53.25c0.18,53.42,0.05,106.85,0.05,160.27c0.42,0,0.84,0,1.26,0
		c0,42.16-1.59,84.39,0.27,126.46c7.72,173.96,135.84,302.7,311.82,314.63c161.64,10.96,317.92-111.68,338.03-277.42
		c12.45-102.64,6.83-207.5,8.49-311.38C1330.46,423.59,1327.12,388.82,1284.85,388.43z"/>
	<path class="st0" d="M1044.4,1161.71c-0.07-30.14-6.4-59.16-42.41-61.56c-43.07-2.87-48.84,29.74-48.94,62.65
		c-0.38,129.07-0.35,258.15,0.01,387.22c0.08,29.39,4.51,59.62,41.9,61.46c42.29,2.08,49.31-28.98,49.42-62.55
		c0.22-64.54,0.07-129.07,0.06-193.61C1044.45,1290.78,1044.54,1226.24,1044.4,1161.71z"/>
</g>
</svg>
