<?xml version="1.0" encoding="utf-8"?>
<!-- Generator: Adobe Illustrator 25.2.1, SVG Export Plug-In . SVG Version: 6.00 Build 0)  -->
<svg version="1.1" id="Layer_1" xmlns="http://www.w3.org/2000/svg" xmlns:xlink="http://www.w3.org/1999/xlink" x="0px" y="0px"
	 viewBox="0 0 2000 2000" style="enable-background:new 0 0 2000 2000;" xml:space="preserve">
<style type="text/css">
	.st0{fill:#161616;}
</style>
<g>
	<path class="st0" d="M1425.83,1283.65c-9.43-19.47-27.61-20.48-46.18-13.07c-45.66,18.22-90.79,37.84-136.88,54.89
		c-97.89,36.22-189.13,93.22-297.53,96.41c-50.93,1.11-98.22-11.91-142.11-36.17c-113.05-62.48-167.27-160.75-161.34-287.56
		c6.62-141.31,90.92-228.19,216.72-280.04c90.81-37.43,182.17-73.53,273.01-110.87c22.89-9.41,50.67-20.52,36.23-52.51
		c-13.47-29.83-42.2-21.91-64.85-12.37c-115.09,48.5-232.49,92.75-343.53,149.34c-153.62,78.3-224.99,266.87-172.81,430.55
		c56.45,177.1,216.6,288.41,393.66,266.91c153.36-18.62,283.91-103.63,425.69-156.21
		C1428.02,1324.76,1436.41,1305.5,1425.83,1283.65z"/>
	<path class="st0" d="M635.49,581.04c98.86,0.2,197.71,0.08,296.56,0.08c101.1,0,202.2,0.11,303.31-0.07
		c27.13-0.05,59.4,2.29,60.1-35.95c0.71-39.1-32.14-36.66-58.99-36.7c-199.96-0.28-399.91-0.31-599.87,0.02
		c-28.73,0.05-65.55-4.28-63.46,38.99C574.94,584.55,608.65,580.99,635.49,581.04z"/>
</g>
</svg>
