<svg width="147" height="125" viewBox="0 0 147 125" fill="none" xmlns="http://www.w3.org/2000/svg">
<mask id="mask0_6_61" style="mask-type:alpha" maskUnits="userSpaceOnUse" x="5" y="14" width="137" height="97">
<rect x="5" y="14" width="137" height="97" fill="#D9D9D9"/>
</mask>
<g mask="url(#mask0_6_61)">
</g>
<path d="M91.6419 76.2566C96.0126 76.2566 100.383 76.2132 104.752 76.271C107.856 76.312 110.882 75.817 110.8 72.7986C110.715 69.7135 107.487 69.5922 104.506 69.589C96.2827 69.5801 88.0416 69.765 79.8394 69.3913C67.0985 68.8111 58.5193 60.8971 58.8846 50.5618C59.2169 41.1506 68.3556 33.763 80.3786 33.4608C88.5973 33.2543 96.8277 33.3628 105.053 33.3499C107.936 33.3451 110.407 32.4547 110.74 30.0189C111.141 27.101 108.056 26.6156 105.521 26.6213C95.5075 26.6446 85.4216 25.7501 75.4979 27.1259C64.2715 28.6825 56.4549 34.078 52.7011 43.0399C48.9881 51.9046 50.7038 59.9665 57.9675 67.4023C66.9382 76.5885 79.1545 76.5965 91.6419 76.2566Z" fill="#00FFF3"/>
<path d="M105.128 93.4632C97.1671 93.5066 89.2066 93.4777 81.246 93.4786C73.0292 93.4796 64.8114 93.4941 56.5946 93.4719C53.447 93.4632 50.7438 94.1505 50.9552 97.9626C51.154 101.554 54.1242 101.436 56.693 101.442C72.8704 101.476 89.0477 101.457 105.225 101.462C107.929 101.463 110.812 101.164 110.939 97.8699C111.079 94.2577 108.294 93.4458 105.128 93.4632Z" fill="#00FFF3"/>
<circle cx="82.9341" cy="90.033" r="32.967" fill="#A4A0C4" fill-opacity="0.58"/>
<circle cx="49.967" cy="41.967" r="32.967" fill="#A4A0C4" fill-opacity="0.58"/>
<circle cx="107.033" cy="37.967" r="32.967" fill="#A4A0C4" fill-opacity="0.58"/>
</svg>
